<svg xmlns="http://www.w3.org/2000/svg" viewBox="0 0 1008 1008"><path fill="currentColor" d="M669 281h-4q117 116 117 279 0 128-75 230.5T514 933q-28 6-28-18V807q0-54-25-73 91-12 131-52 49-46 49-142 0-60-40-103 18-48-4-105-35-8-108 43-52-13-98.5-13T292 375q-63-44-98-42h-10q-19 58-3 105-41 44-41 103 0 96 49 142 41 41 130 52-18 13-24 52-75 35-116-34-20-38-59-39-10 0-15 3-13 7 11 21 30 13 46 57 7 21 25 36 37 33 107 17v67q0 24-25 18-120-41-194-143Q-1 689-1 560q0-163 116-279t278.5-116T669 281z"/></svg>
